<svg width="600" height="340" viewBox="0 0 600 340" fill="none" xmlns="http://www.w3.org/2000/svg">
  <rect width="600" height="340" fill="#F1F5F9"/>
  <rect x="0" y="0" width="600" height="340" fill="url(#grad1)"/>
  <!-- Building silhouette -->
  <rect x="200" y="120" width="200" height="180" rx="4" fill="#0C234B" opacity="0.12"/>
  <rect x="220" y="100" width="160" height="200" rx="4" fill="#0C234B" opacity="0.08"/>
  <!-- Windows -->
  <rect x="240" y="130" width="20" height="20" rx="2" fill="white" opacity="0.6"/>
  <rect x="270" y="130" width="20" height="20" rx="2" fill="white" opacity="0.6"/>
  <rect x="300" y="130" width="20" height="20" rx="2" fill="white" opacity="0.6"/>
  <rect x="330" y="130" width="20" height="20" rx="2" fill="white" opacity="0.6"/>
  <rect x="240" y="165" width="20" height="20" rx="2" fill="white" opacity="0.6"/>
  <rect x="270" y="165" width="20" height="20" rx="2" fill="white" opacity="0.6"/>
  <rect x="300" y="165" width="20" height="20" rx="2" fill="white" opacity="0.6"/>
  <rect x="330" y="165" width="20" height="20" rx="2" fill="white" opacity="0.6"/>
  <rect x="240" y="200" width="20" height="20" rx="2" fill="white" opacity="0.6"/>
  <rect x="270" y="200" width="20" height="20" rx="2" fill="white" opacity="0.6"/>
  <rect x="300" y="200" width="20" height="20" rx="2" fill="white" opacity="0.6"/>
  <rect x="330" y="200" width="20" height="20" rx="2" fill="white" opacity="0.6"/>
  <!-- Door -->
  <rect x="280" y="250" width="40" height="50" rx="4" fill="#AB0520" opacity="0.2"/>
  <!-- Text -->
  <text x="300" y="60" text-anchor="middle" font-family="Georgia, serif" font-size="18" font-weight="600" fill="#0C234B" opacity="0.5">Tushar Lab</text>
  <text x="300" y="82" text-anchor="middle" font-family="sans-serif" font-size="12" fill="#0C234B" opacity="0.35">University of Arizona</text>
  <!-- Arizona A -->
  <path d="M290 310l10-25 10 25" stroke="#AB0520" stroke-width="3" stroke-linecap="round" opacity="0.3"/>
  <line x1="293" y1="303" x2="307" y2="303" stroke="#AB0520" stroke-width="2" opacity="0.3"/>
  <defs>
    <linearGradient id="grad1" x1="0" y1="0" x2="600" y2="340">
      <stop offset="0%" stop-color="#F8FAFF"/>
      <stop offset="100%" stop-color="#EEF2FF"/>
    </linearGradient>
  </defs>
</svg>
